<?xml version="1.0" encoding="UTF-8"?>
<!DOCTYPE svg PUBLIC "-//W3C//DTD SVG 1.1//EN" "http://www.w3.org/Graphics/SVG/1.1/DTD/svg11.dtd">
<svg xmlns="http://www.w3.org/2000/svg" version="1.1" width="259px" height="213px" style="shape-rendering:geometricPrecision; text-rendering:geometricPrecision; image-rendering:optimizeQuality; fill-rule:evenodd; clip-rule:evenodd" xmlns:xlink="http://www.w3.org/1999/xlink">
<g><path style="opacity:1" fill="#478df3" d="M 248.5,39.5 C 248.483,37.9719 247.816,37.4719 246.5,38C 228.493,49.0057 210.159,59.5057 191.5,69.5C 190.833,93.6632 190.167,117.663 189.5,141.5C 189.833,117.491 189.5,93.4907 188.5,69.5C 168.463,58.1504 148.463,46.817 128.5,35.5C 108.376,46.3966 88.3757,57.5633 68.5,69C 67.7476,69.6708 67.4142,70.5041 67.5,71.5C 67.5,94.8333 67.5,118.167 67.5,141.5C 66.8333,117.663 66.1667,93.6632 65.5,69.5C 56.4516,64.9818 47.7849,59.9818 39.5,54.5C 66.6635,38.1967 93.9969,22.03 121.5,6C 123.9,4.29932 126.567,3.46599 129.5,3.5C 169.281,13.5287 208.948,24.0287 248.5,35C 249.801,36.6155 249.801,38.1155 248.5,39.5 Z"/></g>
<g><path style="opacity:1" fill="#9fe8fc" d="M 189.5,141.5 C 169.13,153.685 148.464,165.352 127.5,176.5C 126.5,176.167 125.833,175.5 125.5,174.5C 127.49,151.858 128.156,128.858 127.5,105.5C 107.784,93.8107 87.7838,82.4773 67.5,71.5C 67.4142,70.5041 67.7476,69.6708 68.5,69C 88.3757,57.5633 108.376,46.3966 128.5,35.5C 148.463,46.817 168.463,58.1504 188.5,69.5C 189.5,93.4907 189.833,117.491 189.5,141.5 Z"/></g>
<g><path style="opacity:1" fill="#458cf3" d="M 248.5,39.5 C 238.65,78.234 228.483,116.901 218,155.5C 216.833,157.333 215.333,158.833 213.5,160C 185.172,175.829 157.172,192.162 129.5,209C 128.563,209.692 127.897,209.525 127.5,208.5C 127.638,198.035 127.638,187.368 127.5,176.5C 148.464,165.352 169.13,153.685 189.5,141.5C 190.167,117.663 190.833,93.6632 191.5,69.5C 210.159,59.5057 228.493,49.0057 246.5,38C 247.816,37.4719 248.483,37.9719 248.5,39.5 Z"/></g>
<g><path style="opacity:1" fill="#2f5be3" d="M 39.5,54.5 C 47.7849,59.9818 56.4516,64.9818 65.5,69.5C 66.1667,93.6632 66.8333,117.663 67.5,141.5C 86.8333,152.5 106.167,163.5 125.5,174.5C 125.833,175.5 126.5,176.167 127.5,176.5C 127.638,187.368 127.638,198.035 127.5,208.5C 89.1062,198.648 50.7729,188.481 12.5,178C 10.3485,177.735 8.68185,176.735 7.5,175C 17.487,134.546 28.1537,94.379 39.5,54.5 Z"/></g>
<g><path style="opacity:1" fill="#fdfefe" d="M 67.5,71.5 C 87.7838,82.4773 107.784,93.8107 127.5,105.5C 128.156,128.858 127.49,151.858 125.5,174.5C 106.167,163.5 86.8333,152.5 67.5,141.5C 67.5,118.167 67.5,94.8333 67.5,71.5 Z"/></g>
</svg>
